<svg id="Capa_1" enable-background="new 0 0 512 512" height="512" viewBox="0 0 512 512" width="512" xmlns="http://www.w3.org/2000/svg" xmlns:xlink="http://www.w3.org/1999/xlink"><linearGradient id="lg1"><stop offset="0" stop-color="#ffc2cc"/><stop offset="1" stop-color="#fff2f4"/></linearGradient><linearGradient id="SVGID_1_" gradientUnits="userSpaceOnUse" x1="286" x2="286" xlink:href="#lg1" y1="452" y2="0"/><linearGradient id="SVGID_2_" gradientUnits="userSpaceOnUse" x1="226" x2="226" y1="512" y2="60"><stop offset="0" stop-color="#fd3a84"/><stop offset="1" stop-color="#ffa68d"/></linearGradient><linearGradient id="SVGID_3_" gradientUnits="userSpaceOnUse" x1="226" x2="226" xlink:href="#lg1" y1="423.313" y2="149.303"/><linearGradient id="SVGID_4_" gradientUnits="userSpaceOnUse" x1="196" x2="196" xlink:href="#lg1" y1="423.313" y2="149.303"/><linearGradient id="SVGID_5_" gradientUnits="userSpaceOnUse" x1="256" x2="256" xlink:href="#lg1" y1="423.313" y2="149.303"/><linearGradient id="SVGID_7_" gradientUnits="userSpaceOnUse" x1="286" x2="286" xlink:href="#lg1" y1="423.313" y2="149.303"/><linearGradient id="SVGID_8_" gradientUnits="userSpaceOnUse" x1="166" x2="166" xlink:href="#lg1" y1="423.313" y2="149.303"/><g><path d="m436 0h-300c-8.291 0-15 6.709-15 15v60c0 8.291 6.709 15 15 15l225 347c0 8.291 6.709 15 15 15h60c8.291 0 15-6.709 15-15v-422c0-8.291-6.709-15-15-15z" fill="url(#SVGID_1_)"/><g><path d="m376 512h-300c-8.291 0-15-6.709-15-15v-422c0-8.291 6.709-15 15-15h300c8.291 0 15 6.709 15 15v422c0 8.291-6.709 15-15 15z" fill="url(#SVGID_2_)"/></g><g><path d="m196 242c3.838 0 7.676-1.465 10.605-4.395l60-60c5.859-5.859 5.859-15.352 0-21.211s-15.352-5.859-21.211 0l-60 60c-5.859 5.859-5.859 15.352 0 21.211 2.93 2.93 6.768 4.395 10.606 4.395z" fill="url(#SVGID_3_)"/><circle cx="196" cy="167" fill="url(#SVGID_4_)" r="15"/><circle cx="256" cy="227" fill="url(#SVGID_5_)" r="15"/><path d="m136 302h180c8.291 0 15-6.709 15-15s-6.709-15-15-15h-180c-8.291 0-15 6.709-15 15s6.709 15 15 15z" fill="url(#SVGID_3_)"/><path d="m316 332h-60c-8.291 0-15 6.709-15 15s6.709 15 15 15h60c8.291 0 15-6.709 15-15s-6.709-15-15-15z" fill="url(#SVGID_7_)"/><path d="m196 332h-60c-8.291 0-15 6.709-15 15s6.709 15 15 15h60c8.291 0 15-6.709 15-15s-6.709-15-15-15z" fill="url(#SVGID_8_)"/><path d="m196 392h-60c-8.291 0-15 6.709-15 15s6.709 15 15 15h60c8.291 0 15-6.709 15-15s-6.709-15-15-15z" fill="url(#SVGID_8_)"/><path d="m316 392h-60c-8.291 0-15 6.709-15 15s6.709 15 15 15h60c8.291 0 15-6.709 15-15s-6.709-15-15-15z" fill="url(#SVGID_7_)"/></g></g></svg>